<svg width="125" height="24" viewBox="0 0 125 24" fill="none" xmlns="http://www.w3.org/2000/svg">
<path d="M38.1548 8.63778C38.098 8.06487 37.8542 7.61979 37.4233 7.30256C36.9924 6.98532 36.4077 6.8267 35.669 6.8267C35.1671 6.8267 34.7434 6.89773 34.3977 7.03977C34.0521 7.17708 33.7869 7.36884 33.6023 7.61506C33.4223 7.86127 33.3324 8.14062 33.3324 8.45312C33.3229 8.71354 33.3774 8.94081 33.4957 9.13494C33.6188 9.32907 33.7869 9.49716 34 9.6392C34.2131 9.77651 34.4593 9.89725 34.7386 10.0014C35.018 10.1009 35.3163 10.1861 35.6335 10.2571L36.9403 10.5696C37.5748 10.7116 38.1572 10.901 38.6875 11.1378C39.2178 11.3745 39.6771 11.6657 40.0653 12.0114C40.4536 12.357 40.7543 12.7642 40.9673 13.233C41.1851 13.7017 41.2964 14.2391 41.3011 14.8452C41.2964 15.7353 41.0691 16.5071 40.6193 17.1605C40.1742 17.8092 39.5303 18.3134 38.6875 18.6733C37.8494 19.0284 36.8385 19.206 35.6548 19.206C34.4806 19.206 33.4579 19.026 32.5866 18.6662C31.7202 18.3063 31.0431 17.7737 30.5554 17.0682C30.0724 16.358 29.8191 15.4796 29.7955 14.4332H32.7713C32.8045 14.9209 32.9441 15.3281 33.1903 15.6548C33.4413 15.9768 33.7751 16.2206 34.1918 16.3864C34.6132 16.5473 35.089 16.6278 35.6193 16.6278C36.1402 16.6278 36.5923 16.5521 36.9759 16.4006C37.3641 16.2491 37.6648 16.0384 37.8778 15.7685C38.0909 15.4986 38.1974 15.1884 38.1974 14.8381C38.1974 14.5114 38.1004 14.2367 37.9062 14.0142C37.7169 13.7917 37.4375 13.6023 37.0682 13.446C36.7036 13.2898 36.2562 13.1477 35.7259 13.0199L34.142 12.6222C32.9157 12.3239 31.9474 11.8575 31.2372 11.223C30.527 10.5885 30.1742 9.7339 30.179 8.65909C30.1742 7.77841 30.4086 7.009 30.8821 6.35085C31.3603 5.69271 32.0161 5.17898 32.8494 4.80966C33.6828 4.44034 34.6297 4.25568 35.6903 4.25568C36.7699 4.25568 37.7121 4.44034 38.517 4.80966C39.3267 5.17898 39.9564 5.69271 40.4062 6.35085C40.8561 7.009 41.0881 7.77131 41.1023 8.63778H38.1548ZM43.3129 23.0909V8.09091H46.2958V9.9233H46.4308C46.5633 9.62973 46.7551 9.33144 47.006 9.02841C47.2617 8.72064 47.5932 8.46496 48.0004 8.26136C48.4123 8.05303 48.9237 7.94886 49.5344 7.94886C50.3299 7.94886 51.0638 8.1572 51.7362 8.57386C52.4085 8.9858 52.9459 9.60843 53.3484 10.4418C53.7508 11.2704 53.9521 12.3097 53.9521 13.5597C53.9521 14.7765 53.7556 15.804 53.3626 16.642C52.9743 17.4754 52.444 18.1075 51.7717 18.5384C51.104 18.9645 50.3559 19.1776 49.5273 19.1776C48.9402 19.1776 48.4407 19.0805 48.0288 18.8864C47.6216 18.6922 47.2878 18.4484 47.0273 18.1548C46.7669 17.8565 46.5681 17.5559 46.4308 17.2528H46.3384V23.0909H43.3129ZM46.2745 13.5455C46.2745 14.1941 46.3645 14.7599 46.5444 15.2429C46.7243 15.7259 46.9847 16.1023 47.3256 16.3722C47.6665 16.6373 48.0808 16.7699 48.5685 16.7699C49.061 16.7699 49.4776 16.6349 49.8185 16.3651C50.1594 16.0904 50.4175 15.7116 50.5927 15.2287C50.7726 14.741 50.8626 14.1799 50.8626 13.5455C50.8626 12.9157 50.775 12.3617 50.5998 11.8835C50.4246 11.4053 50.1665 11.0312 49.8256 10.7614C49.4847 10.4915 49.0657 10.3565 48.5685 10.3565C48.0761 10.3565 47.6594 10.4867 47.3185 10.7472C46.9824 11.0076 46.7243 11.3769 46.5444 11.8551C46.3645 12.3333 46.2745 12.8968 46.2745 13.5455ZM60.9407 19.2131C59.8185 19.2131 58.8526 18.9858 58.043 18.5312C57.238 18.072 56.6178 17.4233 56.1822 16.5852C55.7466 15.7424 55.5288 14.7457 55.5288 13.5952C55.5288 12.473 55.7466 11.4882 56.1822 10.6406C56.6178 9.79309 57.2309 9.13258 58.0217 8.65909C58.8171 8.18561 59.7499 7.94886 60.82 7.94886C61.5397 7.94886 62.2096 8.06487 62.8299 8.29688C63.4549 8.52415 63.9994 8.86742 64.4634 9.3267C64.9322 9.78598 65.2968 10.3636 65.5572 11.0597C65.8176 11.7509 65.9478 12.5606 65.9478 13.4886V14.3196H56.7362V12.4446H63.0998C63.0998 12.009 63.0051 11.6231 62.8157 11.2869C62.6263 10.9508 62.3635 10.688 62.0273 10.4986C61.6959 10.3045 61.31 10.2074 60.8697 10.2074C60.4104 10.2074 60.0032 10.3139 59.6481 10.527C59.2977 10.7353 59.0231 11.017 58.8242 11.3722C58.6254 11.7225 58.5236 12.1132 58.5188 12.544V14.3267C58.5188 14.8665 58.6183 15.3329 58.8171 15.7259C59.0207 16.1188 59.3072 16.4219 59.6765 16.6349C60.0458 16.848 60.4838 16.9545 60.9904 16.9545C61.3266 16.9545 61.6344 16.9072 61.9137 16.8125C62.1931 16.7178 62.4322 16.5758 62.631 16.3864C62.8299 16.197 62.9814 15.965 63.0856 15.6903L65.8839 15.875C65.7418 16.5473 65.4506 17.1345 65.0103 17.6364C64.5747 18.1335 64.0112 18.5218 63.32 18.8011C62.6334 19.0758 61.8403 19.2131 60.9407 19.2131ZM67.9222 23.0909V8.09091H70.9052V9.9233H71.0401C71.1727 9.62973 71.3645 9.33144 71.6154 9.02841C71.8711 8.72064 72.2025 8.46496 72.6097 8.26136C73.0217 8.05303 73.533 7.94886 74.1438 7.94886C74.9393 7.94886 75.6732 8.1572 76.3455 8.57386C77.0179 8.9858 77.5553 9.60843 77.9577 10.4418C78.3602 11.2704 78.5614 12.3097 78.5614 13.5597C78.5614 14.7765 78.3649 15.804 77.9719 16.642C77.5837 17.4754 77.0534 18.1075 76.381 18.5384C75.7134 18.9645 74.9653 19.1776 74.1367 19.1776C73.5496 19.1776 73.0501 19.0805 72.6381 18.8864C72.2309 18.6922 71.8971 18.4484 71.6367 18.1548C71.3763 17.8565 71.1774 17.5559 71.0401 17.2528H70.9478V23.0909H67.9222ZM70.8839 13.5455C70.8839 14.1941 70.9738 14.7599 71.1538 15.2429C71.3337 15.7259 71.5941 16.1023 71.935 16.3722C72.2759 16.6373 72.6902 16.7699 73.1779 16.7699C73.6703 16.7699 74.087 16.6349 74.4279 16.3651C74.7688 16.0904 75.0269 15.7116 75.2021 15.2287C75.382 14.741 75.4719 14.1799 75.4719 13.5455C75.4719 12.9157 75.3844 12.3617 75.2092 11.8835C75.034 11.4053 74.7759 11.0312 74.435 10.7614C74.0941 10.4915 73.6751 10.3565 73.1779 10.3565C72.6855 10.3565 72.2688 10.4867 71.9279 10.7472C71.5917 11.0076 71.3337 11.3769 71.1538 11.8551C70.9738 12.3333 70.8839 12.8968 70.8839 13.5455ZM80.5785 19V8.09091H83.5117V9.99432H83.6254C83.8242 9.31723 84.158 8.80587 84.6268 8.46023C85.0955 8.10985 85.6353 7.93466 86.2461 7.93466C86.3976 7.93466 86.561 7.94413 86.7362 7.96307C86.9113 7.98201 87.0652 8.00805 87.1978 8.04119V10.7259C87.0558 10.6832 86.8593 10.6454 86.6083 10.6122C86.3574 10.5791 86.1277 10.5625 85.9194 10.5625C85.4743 10.5625 85.0766 10.6596 84.7262 10.8537C84.3806 11.0431 84.1059 11.3082 83.9023 11.6491C83.7035 11.9901 83.604 12.383 83.604 12.8281V19H80.5785ZM93.1832 19.2131C92.08 19.2131 91.1259 18.9787 90.321 18.5099C89.5208 18.0365 88.9029 17.3783 88.4673 16.5355C88.0317 15.688 87.8139 14.7055 87.8139 13.5881C87.8139 12.4612 88.0317 11.4763 88.4673 10.6335C88.9029 9.78598 89.5208 9.12784 90.321 8.65909C91.1259 8.18561 92.08 7.94886 93.1832 7.94886C94.2865 7.94886 95.2382 8.18561 96.0384 8.65909C96.8433 9.12784 97.4635 9.78598 97.8991 10.6335C98.3348 11.4763 98.5526 12.4612 98.5526 13.5881C98.5526 14.7055 98.3348 15.688 97.8991 16.5355C97.4635 17.3783 96.8433 18.0365 96.0384 18.5099C95.2382 18.9787 94.2865 19.2131 93.1832 19.2131ZM93.1974 16.8693C93.6993 16.8693 94.1184 16.7273 94.4545 16.4432C94.7907 16.1544 95.044 15.7614 95.2145 15.2642C95.3897 14.767 95.4773 14.2012 95.4773 13.5668C95.4773 12.9323 95.3897 12.3665 95.2145 11.8693C95.044 11.3722 94.7907 10.9792 94.4545 10.6903C94.1184 10.4015 93.6993 10.2571 93.1974 10.2571C92.6908 10.2571 92.2647 10.4015 91.919 10.6903C91.5781 10.9792 91.3201 11.3722 91.1449 11.8693C90.9744 12.3665 90.8892 12.9323 90.8892 13.5668C90.8892 14.2012 90.9744 14.767 91.1449 15.2642C91.3201 15.7614 91.5781 16.1544 91.919 16.4432C92.2647 16.7273 92.6908 16.8693 93.1974 16.8693ZM110.339 8.09091L106.525 19H103.116L99.3018 8.09091H102.498L104.763 15.8963H104.877L107.136 8.09091H110.339ZM116.507 19.2131C115.385 19.2131 114.419 18.9858 113.609 18.5312C112.804 18.072 112.184 17.4233 111.749 16.5852C111.313 15.7424 111.095 14.7457 111.095 13.5952C111.095 12.473 111.313 11.4882 111.749 10.6406C112.184 9.79309 112.797 9.13258 113.588 8.65909C114.384 8.18561 115.316 7.94886 116.386 7.94886C117.106 7.94886 117.776 8.06487 118.396 8.29688C119.021 8.52415 119.566 8.86742 120.03 9.3267C120.499 9.78598 120.863 10.3636 121.124 11.0597C121.384 11.7509 121.514 12.5606 121.514 13.4886V14.3196H112.303V12.4446H118.666C118.666 12.009 118.571 11.6231 118.382 11.2869C118.193 10.9508 117.93 10.688 117.594 10.4986C117.262 10.3045 116.876 10.2074 116.436 10.2074C115.977 10.2074 115.57 10.3139 115.214 10.527C114.864 10.7353 114.589 11.017 114.391 11.3722C114.192 11.7225 114.09 12.1132 114.085 12.544V14.3267C114.085 14.8665 114.185 15.3329 114.384 15.7259C114.587 16.1188 114.874 16.4219 115.243 16.6349C115.612 16.848 116.05 16.9545 116.557 16.9545C116.893 16.9545 117.201 16.9072 117.48 16.8125C117.759 16.7178 117.999 16.5758 118.197 16.3864C118.396 16.197 118.548 15.965 118.652 15.6903L121.45 15.875C121.308 16.5473 121.017 17.1345 120.577 17.6364C120.141 18.1335 119.578 18.5218 118.886 18.8011C118.2 19.0758 117.407 19.2131 116.507 19.2131Z" fill="white"/>
<path d="M4.38598 17.6588C3.23465 17.6588 2.30118 18.4879 2.30118 19.5107C2.30118 20.0309 2.54329 20.4994 2.93184 20.8358C2.84707 21.3285 2.29939 21.529 2.33681 21.6646C2.82657 21.8684 3.79648 21.3953 3.94357 21.3219C4.08578 21.3491 4.23466 21.3628 4.38598 21.3628C5.53732 21.3628 6.47079 20.5336 6.47079 19.5107C6.47079 18.4879 5.53716 17.6588 4.38598 17.6588Z" fill="#FF383C"/>
<path fill-rule="evenodd" clip-rule="evenodd" d="M8.94415 13.6828C9.29449 13.683 9.63042 13.8231 9.87814 14.0724C10.1259 14.3216 10.2651 14.6596 10.2654 15.0121L10.2666 22.1066C10.2666 22.2813 10.2323 22.4543 10.1658 22.6156C10.0994 22.777 10.0019 22.9236 9.87913 23.0471C9.75633 23.1706 9.61056 23.2686 9.45014 23.3354C9.28971 23.4022 9.11778 23.4366 8.94416 23.4366C8.77053 23.4365 8.59861 23.4021 8.43822 23.3352C8.27783 23.2683 8.1321 23.1703 8.00936 23.0467C7.88662 22.9231 7.78926 22.7765 7.72286 22.6151C7.65645 22.4536 7.6223 22.2806 7.62234 22.106L7.62171 16.3427L1.8932 16.3427C1.71769 16.3459 1.54331 16.3138 1.38024 16.2484C1.21716 16.1831 1.06867 16.0857 0.943407 15.9619C0.818148 15.8382 0.718637 15.6906 0.650679 15.5277C0.582722 15.3649 0.547679 15.19 0.547596 15.0134C0.547513 14.8368 0.582392 14.6619 0.650197 14.499C0.718002 14.3361 0.817374 14.1884 0.942517 14.0645C1.06766 13.9406 1.21607 13.8431 1.37908 13.7775C1.54209 13.712 1.71644 13.6798 1.89196 13.6828L8.94415 13.6828Z" fill="#FF8D28"/>
<path fill-rule="evenodd" clip-rule="evenodd" d="M20.2902 1.39755C20.9208 1.39795 21.5254 1.65018 21.9714 2.09883C22.4173 2.54749 22.6679 3.15589 22.6683 3.79038L22.6706 16.5604C22.6705 16.8749 22.6089 17.1862 22.4892 17.4767C22.3695 17.7672 22.1942 18.0311 21.9731 18.2534C21.7521 18.4757 21.4897 18.652 21.2009 18.7723C20.9122 18.8926 20.6027 18.9544 20.2902 18.9544C19.9777 18.9543 19.6682 18.8923 19.3795 18.7719C19.0908 18.6515 18.8285 18.475 18.6075 18.2526C18.3866 18.0302 18.2114 17.7662 18.0918 17.4757C17.9723 17.1851 17.9108 16.8737 17.9109 16.5593L17.9098 6.18546L7.59846 6.18546C7.28254 6.19114 6.96865 6.13345 6.67512 6.01576C6.38159 5.89807 6.1143 5.72274 5.88883 5.5C5.66336 5.27726 5.48424 5.01157 5.36192 4.71843C5.2396 4.4253 5.17652 4.11058 5.17637 3.79266C5.17622 3.47473 5.239 3.15996 5.36105 2.86671C5.4831 2.57345 5.66197 2.30759 5.88723 2.08464C6.11249 1.86169 6.37962 1.6861 6.67304 1.56814C6.96646 1.45017 7.28029 1.39218 7.59622 1.39755L20.2902 1.39755Z" fill="#34C759"/>
<path fill-rule="evenodd" clip-rule="evenodd" d="M13.9826 8.18006C14.4731 8.18036 14.9434 8.37654 15.2902 8.7255C15.637 9.07445 15.832 9.54765 15.8323 10.0411L15.834 19.9734C15.834 20.218 15.786 20.4601 15.6929 20.6861C15.5999 20.912 15.4635 21.1173 15.2916 21.2902C15.1196 21.4631 14.9156 21.6002 14.691 21.6937C14.4664 21.7873 14.2257 21.8354 13.9826 21.8353C13.7395 21.8353 13.4988 21.7871 13.2743 21.6934C13.0497 21.5998 12.8457 21.4625 12.6739 21.2895C12.502 21.1166 12.3657 20.9112 12.2728 20.6852C12.1798 20.4593 12.132 20.2171 12.132 19.9725L12.1312 11.904L4.11126 11.904C3.86554 11.9084 3.62141 11.8635 3.39311 11.772C3.16481 11.6805 2.95691 11.5441 2.78155 11.3708C2.60618 11.1976 2.46687 10.991 2.37173 10.763C2.27659 10.535 2.22753 10.2902 2.22741 10.0429C2.2273 9.79564 2.27613 9.55082 2.37105 9.32273C2.46598 9.09465 2.6051 8.88787 2.7803 8.71446C2.9555 8.54105 3.16327 8.40448 3.39149 8.31273C3.6197 8.22098 3.86379 8.17588 4.10952 8.18006L13.9826 8.18006Z" fill="#FFCC00"/>
</svg>
