<svg width="24" height="24" viewBox="0 0 24 24" fill="none" xmlns="http://www.w3.org/2000/svg">
<path d="M4.38598 17.6588C3.23465 17.6588 2.30118 18.4879 2.30118 19.5107C2.30118 20.0309 2.54329 20.4994 2.93184 20.8358C2.84707 21.3285 2.29939 21.529 2.33681 21.6646C2.82657 21.8684 3.79648 21.3953 3.94357 21.3219C4.08578 21.3491 4.23466 21.3628 4.38598 21.3628C5.53732 21.3628 6.47079 20.5336 6.47079 19.5107C6.47079 18.4879 5.53716 17.6588 4.38598 17.6588Z" fill="#FF383C"/>
<path fill-rule="evenodd" clip-rule="evenodd" d="M8.94415 13.6828C9.29449 13.683 9.63042 13.8231 9.87814 14.0724C10.1259 14.3216 10.2651 14.6596 10.2654 15.0121L10.2666 22.1066C10.2666 22.2813 10.2323 22.4543 10.1658 22.6156C10.0994 22.777 10.0019 22.9236 9.87914 23.0471C9.75633 23.1706 9.61056 23.2686 9.45014 23.3354C9.28971 23.4022 9.11778 23.4366 8.94416 23.4366C8.77053 23.4365 8.59861 23.4021 8.43822 23.3352C8.27783 23.2683 8.1321 23.1703 8.00936 23.0467C7.88662 22.9231 7.78926 22.7765 7.72286 22.6151C7.65645 22.4536 7.6223 22.2806 7.62234 22.106L7.62171 16.3427L1.8932 16.3427C1.71769 16.3459 1.54331 16.3138 1.38024 16.2484C1.21716 16.1831 1.06867 16.0857 0.943407 15.9619C0.818148 15.8382 0.718636 15.6906 0.650679 15.5277C0.582722 15.3649 0.547679 15.19 0.547596 15.0134C0.547513 14.8368 0.582392 14.6619 0.650197 14.499C0.718002 14.3361 0.817374 14.1884 0.942517 14.0645C1.06766 13.9406 1.21607 13.8431 1.37908 13.7775C1.54209 13.712 1.71644 13.6798 1.89196 13.6828L8.94415 13.6828Z" fill="#FF8D28"/>
<path fill-rule="evenodd" clip-rule="evenodd" d="M20.2902 1.39755C20.9208 1.39795 21.5254 1.65018 21.9714 2.09883C22.4173 2.54749 22.6679 3.15589 22.6683 3.79038L22.6706 16.5604C22.6705 16.8749 22.6089 17.1862 22.4892 17.4767C22.3695 17.7672 22.1942 18.0311 21.9731 18.2534C21.7521 18.4757 21.4897 18.652 21.2009 18.7723C20.9122 18.8926 20.6027 18.9544 20.2902 18.9544C19.9777 18.9543 19.6682 18.8923 19.3795 18.7719C19.0908 18.6515 18.8285 18.475 18.6075 18.2526C18.3866 18.0302 18.2114 17.7662 18.0918 17.4757C17.9723 17.1851 17.9108 16.8737 17.9109 16.5593L17.9098 6.18546H7.59847C7.28254 6.19114 6.96865 6.13345 6.67512 6.01576C6.38159 5.89807 6.1143 5.72274 5.88883 5.5C5.66336 5.27726 5.48424 5.01157 5.36192 4.71843C5.2396 4.4253 5.17652 4.11058 5.17637 3.79266C5.17622 3.47473 5.239 3.15996 5.36105 2.86671C5.4831 2.57345 5.66197 2.30759 5.88723 2.08464C6.11249 1.86169 6.37962 1.6861 6.67304 1.56814C6.96646 1.45017 7.28029 1.39218 7.59622 1.39755L20.2902 1.39755Z" fill="#34C759"/>
<path fill-rule="evenodd" clip-rule="evenodd" d="M13.9826 8.18006C14.4731 8.18036 14.9434 8.37654 15.2902 8.7255C15.637 9.07445 15.832 9.54765 15.8323 10.0411L15.834 19.9734C15.834 20.218 15.786 20.4601 15.6929 20.6861C15.5999 20.912 15.4635 21.1173 15.2916 21.2902C15.1196 21.4631 14.9156 21.6002 14.691 21.6937C14.4664 21.7873 14.2257 21.8354 13.9826 21.8353C13.7395 21.8353 13.4988 21.7871 13.2743 21.6934C13.0497 21.5998 12.8457 21.4625 12.6739 21.2895C12.502 21.1166 12.3657 20.9112 12.2728 20.6852C12.1798 20.4593 12.132 20.2171 12.132 19.9725L12.1312 11.904L4.11126 11.904C3.86554 11.9084 3.62141 11.8635 3.39311 11.772C3.16481 11.6805 2.95691 11.5441 2.78155 11.3708C2.60619 11.1976 2.46687 10.991 2.37173 10.763C2.27659 10.535 2.22753 10.2902 2.22741 10.0429C2.2273 9.79564 2.27613 9.55082 2.37105 9.32273C2.46598 9.09465 2.6051 8.88787 2.7803 8.71446C2.9555 8.54105 3.16327 8.40448 3.39149 8.31273C3.6197 8.22098 3.86379 8.17588 4.10952 8.18006L13.9826 8.18006Z" fill="#FFCC00"/>
</svg>
